<?xml version="1.0" encoding="UTF-8"?>
<svg id="Layer_2" data-name="Layer 2" xmlns="http://www.w3.org/2000/svg" xmlns:xlink="http://www.w3.org/1999/xlink" viewBox="0 0 883.7 224.39">
  <defs>
    <style>
      .cls-1 {
        clip-path: url(#clippath);
      }

      .cls-2, .cls-3 {
        fill: none;
      }

      .cls-2, .cls-3, .cls-4, .cls-5, .cls-6, .cls-7, .cls-8, .cls-9, .cls-10, .cls-11, .cls-12, .cls-13, .cls-14 {
        stroke-width: 0px;
      }

      .cls-15 {
        clip-path: url(#clippath-1);
      }

      .cls-16 {
        clip-path: url(#clippath-2);
      }

      .cls-3 {
        clip-rule: evenodd;
      }

      .cls-4 {
        fill: #0085cb;
      }

      .cls-4, .cls-5, .cls-6, .cls-7 {
        fill-rule: evenodd;
      }

      .cls-5 {
        fill: #00652e;
      }

      .cls-6, .cls-13 {
        fill: #ffca05;
      }

      .cls-7, .cls-11 {
        fill: #fff;
      }

      .cls-9 {
        fill: #231f20;
      }

      .cls-10 {
        fill: #b7d333;
      }

      .cls-12 {
        fill: #ec1c24;
      }

      .cls-14 {
        fill: #005eb8;
      }
    </style>
    <clipPath id="clippath">
      <polygon class="cls-2" points="48.15 63.6 104.1 63.6 132.22 15.1 160.16 63.6 216.28 63.6 188.32 112.2 216.28 160.67 160.33 160.67 132.22 209.29 104.1 160.84 48.15 160.84 76.2 112.2 48.15 63.6"/>
    </clipPath>
    <clipPath id="clippath-1">
      <path class="cls-3" d="M-12.06,160.34s1.79,126.77,144.27,163.36c142.48-36.54,144.45-163.31,144.45-163.31l-.1-238.64s-288.73-.02-288.72-.05l.1,238.64Z"/>
    </clipPath>
    <clipPath id="clippath-2">
      <path class="cls-3" d="M248.75,136.01l-.05-157.77s-232.93-.01-232.96-.03l.02,157.77,232.99.03Z"/>
    </clipPath>
  </defs>
  <g id="Layer_1-2" data-name="Layer 1">
    <g>
      <g>
        <g id="XrJhmX">
          <g>
            <path class="cls-14" d="M264.45,64.29c-.53,0-1.06.02-1.59.02-87.09,0-174.18,0-261.28,0-.53,0-1.06-.01-1.59-.02,0-9.96,0-19.92,0-29.88.52.04,1.05.12,1.57.12,87.1,0,174.21,0,261.31,0,.52,0,1.05-.08,1.57-.12v29.88Z"/>
            <path class="cls-14" d="M0,160.82c.53,0,1.06-.02,1.59-.02,87.09,0,174.18,0,261.28,0,.53,0,1.06.01,1.59.02v29.88c-.52-.04-1.04-.11-1.57-.11-87.1,0-174.21,0-261.31,0-.52,0-1.05.07-1.57.11,0-9.96,0-19.92,0-29.88Z"/>
          </g>
        </g>
        <g>
          <g class="cls-1">
            <g>
              <path class="cls-5" d="M276.56-70.51l.03,216.77s0,30.74-2.59,42.52c-2.42,10.99-7.09,25.85-16.15,41.81-18.41,32.44-54,67.73-121,84.91l-4.6,1.18-4.6-1.18c-67-17.21-102.57-52.52-120.94-84.97-9.04-15.97-13.69-30.84-16.09-41.83-2.57-11.78-2.76-42.5-2.76-42.5l-.02-216.76,288.72.05Z"/>
              <g class="cls-15">
                <rect class="cls-10" x="132.14" y="92.22" width="91.66" height="10.53"/>
                <polygon class="cls-10" points="223.81 136.46 130.34 102.42 133.94 92.53 223.81 125.25 223.81 136.11 223.81 136.46"/>
                <path class="cls-10" d="M498.73,452.56L167.63,131.47l3.38-4.03,362.8,191.09c-8.43,32.58-19.78,95.03-35.08,134.03Z"/>
                <path class="cls-10" d="M385.63,637.45L148.85,134.17l5.47-3.16,307.75,428.25c-23.28,26.54-48.71,52.7-76.44,78.2Z"/>
                <path class="cls-10" d="M177.83,711.31l-42.26-578.71,5.19-.91,136.94,539.54c-31.73,14.2-65,27.6-99.86,40.09Z"/>
                <path class="cls-10" d="M-13.24,670.79L123.54,131.67l5.19.92-42.12,578.47c-34.87-12.55-68.12-26-99.85-40.26Z"/>
                <path class="cls-10" d="M-197.34,558.4L110.29,131l5.47,3.16-236.78,502.68c-27.7-25.59-53.09-51.83-76.33-78.45Z"/>
                <path class="cls-10" d="M-268.59,319.78L89.47,129.72l3.39,4.03L-233.77,454.98c-15.23-39.13-26.49-102.59-34.82-135.2Z"/>
                <polygon class="cls-10" points="40.64 125.15 130.34 92.53 133.94 102.42 40.64 136.36 40.64 136.19 40.64 125.15"/>
                <polygon class="cls-10" points="40.66 92.19 132.14 92.21 132.14 102.74 40.65 102.72 40.66 92.19"/>
              </g>
              <path class="cls-4" d="M283.98,135.33l-.07-175.08s-303.37-.01-303.4-.04l.03,175.08,303.44.04Z"/>
              <g class="cls-16">
                <path class="cls-6" d="M85.74,138.66c0-25.74,20.84-46.59,46.57-46.59,25.74,0,46.6,20.87,46.6,46.61l-93.17-.02Z"/>
                <rect class="cls-13" x="80.19" y="71.67" width="125.46" height="10.4" transform="translate(42.57 204.4) rotate(-80.08)"/>
                <polygon class="cls-13" points="205.96 21.9 136.61 141.27 127.61 136.05 196.96 16.69 205.96 21.9"/>
                <rect class="cls-13" x="116.12" y="89.5" width="136.83" height="10.4" transform="translate(-17.72 140.7) rotate(-39.98)"/>
                <rect class="cls-13" x="128.68" y="114" width="113.81" height="10.4" transform="translate(-29.57 70.63) rotate(-19.99)"/>
                <rect class="cls-13" x="73.43" y="62.26" width="10.4" height="113.84" transform="translate(-60.27 152.28) rotate(-69.99)"/>
                <rect class="cls-13" x="83.31" y="45.14" width="10.4" height="113.85" transform="translate(-46.57 104.25) rotate(-49.99)"/>
                <rect class="cls-13" x="91.35" y="6.01" width="10.4" height="142.18" transform="translate(-25.62 58.63) rotate(-30.01)"/>
                <rect class="cls-13" x="115.43" y="8.55" width="10.4" height="131.13" transform="translate(-11.11 22.27) rotate(-10.09)"/>
              </g>
              <polygon class="cls-7" points="146.22 136 186.75 136.01 186.75 116.69 186.75 103.31 173.15 116.69 173.15 103.31 159.77 116.69 159.77 102.84 146.05 116.56 146.22 136"/>
              <rect class="cls-9" x="148.92" y="120.4" width="7.96" height="5.27"/>
              <rect class="cls-9" x="162.27" y="120.4" width="7.96" height="5.27"/>
              <rect class="cls-9" x="176.15" y="120.4" width="7.96" height="5.27"/>
              <path class="cls-9" d="M130.51,112.39c-.85,0-1.54.69-1.54,1.54l.08,9c0,.85.69,1.54,1.54,1.54.85,0,1.5-.69,1.5-1.54v-6.55s.65,0,.65,0v18.94c0,.85.75,1.64,1.6,1.64.85,0,1.54-.69,1.54-1.54l-.08-9.51h.87s.08,9.51.08,9.51c0,.85.69,1.54,1.54,1.54.85,0,1.52-.79,1.51-1.64v-18.94s.61,0,.61,0l.08,6.63c0,.85.69,1.54,1.54,1.54.85,0,1.54-.69,1.54-1.54l-.08-9.08c0-.85-.69-1.54-1.54-1.54h-11.45Z"/>
              <path class="cls-9" d="M139.91,108.1c0-2.01-1.63-3.64-3.64-3.64-2.01,0-3.64,1.63-3.64,3.64,0,2.01,1.63,3.64,3.64,3.64,2.01,0,3.64-1.63,3.64-3.64Z"/>
              <path class="cls-9" d="M119.54,108.09c0-2.01,1.63-3.64,3.64-3.64,2.01,0,3.64,1.63,3.64,3.64,0,2.01-1.63,3.64-3.64,3.64-2.01,0-3.64-1.63-3.64-3.64Z"/>
              <path class="cls-9" d="M119.78,112.29c-1.47,0-2.68.93-3.21,2.2l-2.17,8.23c-.22.83.27,1.68,1.1,1.91.83.22,1.68-.27,1.91-1.1l1.58-5.8h.8s-2.94,11.22-2.94,11.22h2.84s.05,6.34.05,6.34c0,.86.71,1.66,1.57,1.66.86,0,1.56-.7,1.56-1.56l-.05-6.44h.88s.05,6.44.05,6.44c0,.86.7,1.56,1.56,1.56.86,0,1.57-.8,1.57-1.66l-.05-6.34h2.82s-2.89-11.22-2.89-11.22h.8s1.53,5.63,1.53,5.63c.22.83,1.08,1.32,1.91,1.1.83-.22,1.32-1.08,1.1-1.91l-2.12-8.06c-.54-1.27-1.75-2.21-3.22-2.21h-6.96Z"/>
              <polygon class="cls-11" points="105.79 136 78.13 135.99 78.13 117.38 91.98 103.47 105.79 117.39 105.79 136"/>
              <polygon class="cls-12" points="70.48 117.62 91.98 96.11 113.51 117.65 106.16 125 91.98 110.83 77.84 124.98 70.48 117.62"/>
              <rect class="cls-9" x="87.97" y="120.39" width="7.96" height="5.27"/>
            </g>
          </g>
          <path class="cls-14" d="M132.2,15.37l25.64,44.51,2.22,3.85h56l-25.68,44.62-2.21,3.84,2.21,3.84,25.66,44.48h-55.77l-2.22,3.84-25.84,44.69-25.82-44.51-2.22-3.83h-55.77l25.76-44.67,2.22-3.84-2.22-3.84-25.75-44.62h55.76l2.22-3.83,25.81-44.53M132.22,0l-32.49,56.05H35.08l32.41,56.15-32.41,56.2h64.65l32.49,55.99,32.49-56.18h64.65l-32.32-56.02,32.32-56.15h-64.85L132.22,0h0Z"/>
        </g>
      </g>
      <g>
        <path class="cls-8" d="M340.76,162.99c-7.73,0-15.09-1.26-22.07-3.77-6.99-2.51-13.74-6.19-20.26-11.04l12.3-17.75c6.8,4.75,12.57,8.1,17.32,10.06,4.75,1.96,9.55,2.93,14.39,2.93,3.44,0,6.4-.44,8.87-1.33,2.47-.88,4.38-2.1,5.73-3.63,1.35-1.54,2.03-3.33,2.03-5.38,0-2.88-.96-5.1-2.86-6.64-1.91-1.54-5.24-2.72-9.99-3.56l-20.82-3.63c-7.73-1.3-13.67-4.28-17.81-8.94-4.15-4.65-6.22-10.43-6.22-17.32,0-6.33,1.54-11.8,4.61-16.42,3.07-4.61,7.52-8.17,13.34-10.69,5.82-2.51,12.78-3.77,20.89-3.77,7.55,0,14.86,1.14,21.94,3.42,7.08,2.28,13.13,5.43,18.16,9.43l-12.16,17.46c-4.75-3.63-9.5-6.33-14.25-8.1-4.75-1.77-9.73-2.65-14.95-2.65-3.17,0-5.87.4-8.1,1.19s-3.94,1.88-5.1,3.28c-1.17,1.4-1.75,2.98-1.75,4.75,0,2.52.86,4.45,2.58,5.8,1.72,1.35,4.54,2.4,8.45,3.14l19.56,3.35c9.13,1.49,16.07,4.61,20.82,9.36,4.75,4.75,7.12,10.85,7.12,18.3,0,6.33-1.7,11.92-5.1,16.76-3.4,4.84-8.22,8.62-14.46,11.32-6.24,2.7-13.65,4.05-22.21,4.05Z"/>
        <path class="cls-8" d="M398.18,161.45V63.65h39.82c6.89,0,13.3,1.26,19.21,3.77,5.91,2.51,11.13,6.01,15.65,10.48,4.52,4.47,8.03,9.66,10.55,15.58,2.51,5.92,3.77,12.27,3.77,19.07s-1.26,13.16-3.77,19.07c-2.51,5.92-6.03,11.11-10.55,15.58-4.52,4.47-9.73,7.96-15.65,10.48-5.92,2.51-12.32,3.77-19.21,3.77h-39.82ZM422.22,140.91h15.79c4.56,0,8.66-1.26,12.3-3.77,3.63-2.51,6.54-5.94,8.73-10.27,2.19-4.33,3.28-9.1,3.28-14.32s-1.1-10.11-3.28-14.39c-2.19-4.28-5.1-7.68-8.73-10.2-3.63-2.51-7.73-3.77-12.3-3.77h-15.79v56.73Z"/>
        <path class="cls-8" d="M504.37,161.45V63.65h73.91v20.12h-49.88v18.58h35.21v19.56h-35.21v19.42h50.44v20.12h-74.47Z"/>
        <path class="cls-8" d="M597.7,161.45V63.65h47.5c6.71,0,12.67,1.33,17.88,3.98,5.22,2.65,9.29,6.33,12.23,11.04,2.94,4.7,4.4,10.08,4.4,16.14s-1.65,11.76-4.96,16.56c-3.31,4.8-7.71,8.41-13.2,10.83l20.54,39.26h-26.83l-17.74-35.91h-15.79v35.91h-24.03ZM621.73,106.68h21.24c3.72,0,6.73-1.07,9.01-3.21,2.28-2.14,3.42-4.94,3.42-8.38s-1.14-6.36-3.42-8.45c-2.28-2.1-5.29-3.14-9.01-3.14h-21.24v23.19Z"/>
        <path class="cls-8" d="M741.89,162.99c-7.08,0-13.69-1.28-19.84-3.84-6.15-2.56-11.53-6.15-16.14-10.76-4.61-4.61-8.2-9.97-10.76-16.07-2.56-6.1-3.84-12.69-3.84-19.77s1.28-13.67,3.84-19.77c2.56-6.1,6.15-11.46,10.76-16.07,4.61-4.61,9.99-8.2,16.14-10.76,6.15-2.56,12.76-3.84,19.84-3.84s13.69,1.28,19.84,3.84c6.15,2.56,11.53,6.15,16.14,10.76,4.61,4.61,8.2,9.97,10.76,16.07,2.56,6.1,3.84,12.69,3.84,19.77s-1.28,13.67-3.84,19.77c-2.56,6.1-6.15,11.46-10.76,16.07s-9.99,8.2-16.14,10.76c-6.15,2.56-12.76,3.84-19.84,3.84ZM741.89,141.61c3.63,0,7.03-.72,10.2-2.17,3.17-1.44,5.91-3.49,8.25-6.15,2.33-2.65,4.14-5.73,5.45-9.22,1.3-3.49,1.96-7.33,1.96-11.53s-.65-8.03-1.96-11.53c-1.31-3.49-3.12-6.57-5.45-9.22-2.33-2.65-5.08-4.7-8.25-6.15-3.17-1.44-6.57-2.17-10.2-2.17s-7.03.72-10.2,2.17c-3.17,1.44-5.92,3.49-8.24,6.15-2.33,2.65-4.15,5.73-5.45,9.22s-1.96,7.33-1.96,11.53.65,8.03,1.96,11.53c1.3,3.49,3.12,6.57,5.45,9.22,2.33,2.65,5.08,4.71,8.24,6.15,3.17,1.45,6.57,2.17,10.2,2.17Z"/>
        <path class="cls-8" d="M828.23,161.45v-77.27h-31.44v-20.54h86.9v20.54h-31.44v77.27h-24.03Z"/>
      </g>
    </g>
  </g>
</svg>